<?xml version="1.0" standalone="no"?>
<!DOCTYPE svg PUBLIC "-//W3C//DTD SVG 20010904//EN"
 "http://www.w3.org/TR/2001/REC-SVG-20010904/DTD/svg10.dtd">
<svg version="1.0" xmlns="http://www.w3.org/2000/svg"
 width="731.000000pt" height="731.000000pt" viewBox="0 0 731.000000 731.000000"
 preserveAspectRatio="xMidYMid meet">
<metadata>
Created by potrace 1.14, written by Peter Selinger 2001-2017
</metadata>
<g transform="translate(0.000000,731.000000) scale(0.100000,-0.100000)"
fill="#000000" stroke="none">
<path d="M1755 5661 c-88 -54 -121 -157 -78 -245 14 -29 14 -40 4 -62 -16 -37
-26 -22 -27 42 -2 144 -163 230 -284 150 -97 -64 -107 -197 -23 -288 14 -14
23 -33 21 -42 -5 -25 -138 61 -138 89 -1 34 -36 100 -68 127 -75 63 -167 62
-238 -4 -51 -47 -69 -93 -60 -156 9 -66 46 -116 105 -143 45 -21 50 -27 70
-83 12 -34 21 -67 21 -73 0 -25 -27 -12 -51 25 -44 69 -146 100 -222 68 -46
-19 -96 -74 -108 -119 -25 -92 39 -202 131 -227 25 -7 51 -14 58 -16 7 -2 10
-8 7 -14 -8 -13 -62 -13 -70 0 -4 6 -24 19 -45 30 -139 71 -296 -57 -258 -209
15 -58 70 -113 131 -130 40 -12 53 -11 94 2 l48 16 120 -49 c320 -130 390
-160 393 -169 2 -5 -10 -36 -26 -68 -66 -129 -137 -375 -163 -563 -19 -138
-17 -403 4 -520 49 -262 176 -506 331 -631 272 -220 656 -233 1012 -34 134 75
330 240 414 349 19 25 40 45 46 46 10 0 140 -77 509 -303 278 -170 564 -293
772 -333 113 -22 303 -22 400 0 192 42 358 138 519 300 112 113 169 200 208
317 29 88 42 213 28 284 -6 27 -9 52 -7 53 2 2 21 -10 42 -27 98 -79 275 -96
467 -47 124 32 173 56 239 116 111 102 160 263 126 419 -27 128 -174 227 -285
193 -19 -5 -34 -6 -34 -1 0 5 23 65 50 134 119 299 129 444 40 630 -83 173
-225 243 -413 201 -43 -10 -98 -31 -132 -51 -65 -39 -64 -39 -115 -24 l-37 11
23 57 c28 72 37 143 25 206 -9 48 -8 50 29 92 45 52 65 115 57 187 -14 141
-112 221 -272 221 -68 0 -89 -4 -137 -28 -65 -32 -140 -109 -154 -159 -8 -27
-15 -33 -39 -35 -17 -2 -53 -8 -80 -13 l-51 -10 -54 52 c-71 69 -135 92 -245
91 -46 -1 -99 -8 -124 -17 -24 -9 -47 -16 -51 -16 -4 0 -12 18 -19 41 -16 54
-72 114 -126 135 -63 23 -143 15 -192 -19 l-37 -27 -18 29 c-61 97 -235 140
-425 107 -218 -38 -366 -122 -424 -243 -30 -62 -36 -157 -14 -222 36 -108 173
-216 283 -222 l42 -3 0 -52 c0 -29 3 -59 6 -67 3 -10 -13 -25 -52 -47 l-57
-32 -50 56 c-206 236 -572 320 -958 222 -52 -13 -95 -22 -97 -21 -8 7 -54 188
-72 283 -26 133 -26 192 0 234 22 37 27 109 9 155 -14 38 -57 83 -96 99 -46
20 -122 18 -158 -5z m139 -91 c26 -26 25 -75 -4 -105 -21 -23 -22 -30 -16
-107 4 -46 14 -128 22 -183 11 -74 12 -101 3 -104 -31 -10 -213 -157 -269
-217 -146 -156 -267 -356 -292 -479 -7 -33 -13 -61 -14 -63 -1 -2 -107 39
-235 91 -320 129 -335 134 -370 113 -38 -22 -66 -20 -94 9 -52 51 -20 125 54
125 33 0 43 -5 61 -30 18 -25 28 -30 63 -30 56 0 152 28 173 51 31 34 16 99
-43 176 -22 30 -27 32 -67 27 -38 -6 -45 -3 -64 21 -44 56 -15 125 51 125 42
0 65 -17 75 -55 11 -40 52 -59 130 -60 58 0 66 3 88 28 15 18 24 41 24 62 0
39 -30 140 -65 219 -24 54 -26 56 -64 56 -47 0 -71 26 -71 77 0 68 77 97 127
47 22 -22 25 -32 20 -67 l-6 -42 90 -58 c119 -77 166 -95 208 -77 18 7 38 25
45 39 34 67 30 166 -8 181 -33 12 -50 38 -50 77 0 68 80 98 129 48 29 -28 31
-48 10 -89 -15 -28 -14 -31 12 -59 46 -49 104 -87 134 -87 38 0 83 57 110 137
l21 63 -26 31 c-28 33 -32 55 -15 93 22 47 83 55 123 16z m1762 -129 c22 -10
51 -31 63 -47 20 -25 22 -38 19 -90 -3 -50 -15 -84 -62 -180 -91 -186 -92
-204 -8 -204 42 0 50 4 92 48 51 53 71 99 96 222 24 116 73 190 126 190 34 0
75 -28 88 -60 19 -47 -4 -142 -122 -489 -108 -319 -130 -369 -196 -442 -120
-133 -321 -151 -444 -40 -57 51 -78 91 -78 150 0 74 29 109 106 130 76 20 139
-16 178 -101 l21 -46 38 13 c21 7 47 21 58 31 21 19 62 102 73 146 l6 27 -52
-24 c-164 -76 -284 32 -249 222 15 81 44 166 88 258 58 121 41 163 -62 152
-62 -6 -125 -36 -154 -73 -27 -34 -28 -64 -1 -64 13 0 20 7 20 18 0 66 106 47
136 -24 34 -81 -41 -154 -158 -154 -67 0 -124 26 -166 75 -57 64 -66 118 -33
190 48 107 229 183 436 184 77 0 109 -4 141 -18z m1546 -121 c30 0 85 -61 93
-102 14 -73 -52 -147 -104 -118 -24 13 -25 14 -9 39 16 26 3 53 -24 49 -34 -4
-28 -55 16 -158 68 -162 37 -289 -93 -371 -61 -39 -106 -50 -208 -50 -72 0
-94 4 -138 25 -28 14 -60 35 -69 45 -17 19 -19 19 -59 -21 -84 -81 -183 -118
-317 -118 -98 0 -165 20 -218 66 -104 89 -117 224 -34 378 38 72 135 167 207
201 76 38 174 46 241 20 119 -45 129 -188 19 -297 -58 -57 -98 -73 -188 -73
-85 0 -88 -3 -62 -59 23 -48 69 -71 140 -70 67 0 105 16 166 71 36 32 39 40
39 86 0 74 20 126 65 173 88 92 241 73 261 -33 3 -18 3 -45 0 -59 -7 -25 -8
-25 -25 -10 -35 32 -80 -10 -58 -55 9 -18 22 -25 49 -27 82 -7 109 48 83 170
-19 93 -19 171 0 208 30 57 118 104 179 94 16 -2 37 -4 48 -4z m-3249 -367 c3
-27 8 -55 11 -63 5 -11 -11 -23 -60 -44 -192 -84 -352 -237 -484 -462 -45 -78
-49 -75 -19 17 65 201 217 383 452 544 45 30 84 55 88 55 3 0 9 -21 12 -47z
m939 -270 c109 -79 203 -219 229 -340 6 -32 14 -52 16 -45 3 6 11 12 19 12 8
0 15 10 15 23 3 60 17 -48 18 -143 1 -75 -5 -128 -19 -185 -11 -44 -25 -143
-30 -220 -11 -169 -39 -319 -84 -454 -19 -56 -31 -103 -27 -105 3 -2 35 -12
71 -21 114 -29 369 -115 570 -192 252 -97 347 -130 428 -149 110 -26 221 1
275 65 33 40 34 55 3 86 -40 40 -84 42 -162 9 -17 -7 -34 51 -34 115 0 75 40
145 118 206 249 198 566 192 771 -14 78 -78 124 -163 148 -274 14 -67 15 -90
5 -160 -12 -83 -57 -193 -102 -247 -16 -19 -13 -9 9 36 46 94 69 172 75 254 5
62 4 69 -5 40 -27 -89 -71 -163 -146 -240 -50 -53 -79 -77 -84 -69 -4 7 -17 9
-29 6 -18 -5 -19 -3 -8 10 12 15 11 15 -9 4 -17 -9 -183 -12 -649 -12 l-626 0
-101 59 c-56 32 -180 107 -276 167 -96 59 -224 134 -285 166 l-109 57 -53 -70
c-99 -134 -260 -285 -371 -351 -53 -31 -63 -33 -124 -29 -47 3 -75 0 -100 -12
-33 -16 -33 -16 -9 1 64 47 155 130 206 191 73 86 149 200 140 210 -14 13
-195 15 -227 2 -80 -33 -107 -134 -51 -190 l29 -28 -41 -19 c-23 -10 -62 -18
-93 -17 -67 0 -128 40 -161 104 -70 135 61 313 264 361 27 6 125 11 221 11
l172 0 15 68 c16 67 20 100 13 100 -2 0 -30 -10 -63 -21 -82 -30 -290 -38
-387 -15 -149 35 -248 120 -292 254 -25 76 -18 200 15 267 34 71 114 148 174
168 48 16 156 23 169 11 3 -3 1 -19 -5 -35 -14 -41 -3 -76 32 -94 42 -22 89
-19 147 10 59 30 95 73 113 133 22 70 -17 144 -95 185 -16 9 -24 16 -17 17 24
0 69 -28 100 -64 29 -34 32 -35 42 -17 5 11 10 28 10 38 0 17 12 18 185 15
l185 -3 0 31 c0 42 -33 132 -72 199 -18 30 -76 98 -128 150 l-95 96 60 -34
c33 -18 81 -49 107 -68z m-746 4 c-134 -83 -240 -162 -313 -234 -81 -79 -186
-203 -137 -161 15 13 44 17 135 20 l115 3 -59 -75 -60 -75 44 -5 c36 -5 50 -2
74 17 116 89 258 165 304 162 9 0 5 -4 -9 -8 -100 -31 -244 -132 -330 -232
-273 -317 -401 -649 -370 -959 20 -201 71 -329 173 -434 31 -32 46 -51 31 -41
-21 13 -42 16 -103 13 l-76 -4 -66 66 c-113 114 -202 321 -235 549 l-14 96 5
-135 c7 -204 41 -333 139 -527 25 -51 44 -93 42 -93 -2 0 -22 28 -44 63 -74
112 -118 234 -148 407 -24 140 -15 421 20 587 34 162 68 267 126 390 45 95
152 273 165 273 3 0 1 -9 -5 -20 -10 -18 -8 -20 20 -20 22 0 29 -4 25 -12 -4
-7 10 7 31 32 172 202 320 315 467 355 64 17 78 17 53 2z m3621 -170 c48 -32
91 -101 105 -169 12 -57 26 -61 29 -8 1 16 5 8 11 -20 6 -30 5 -70 -3 -120
-10 -68 -29 -127 -122 -380 -26 -71 -31 -100 -31 -177 -1 -87 0 -93 30 -130
17 -21 38 -39 46 -41 9 -2 29 21 52 57 62 100 109 116 172 59 30 -28 36 -41
41 -91 4 -40 0 -78 -12 -125 -16 -56 -27 -75 -70 -118 -44 -44 -65 -56 -136
-80 -73 -24 -101 -27 -210 -28 -123 -1 -126 0 -175 29 -37 24 -56 44 -79 90
-29 57 -30 63 -29 189 1 113 5 147 32 249 18 65 57 180 88 255 70 172 73 189
40 225 -49 53 -88 29 -166 -103 -69 -115 -126 -236 -141 -296 -17 -70 -42
-116 -84 -152 -29 -26 -44 -32 -84 -32 -60 0 -132 24 -160 54 l-22 24 -67 -33
c-94 -46 -165 -65 -244 -65 -77 0 -129 18 -170 57 l-27 26 -46 -50 c-56 -64
-127 -110 -206 -134 -80 -25 -107 -24 -162 6 l-47 24 -47 -47 c-58 -57 -107
-82 -163 -82 -55 0 -97 26 -117 72 -16 36 -33 50 -33 27 0 -24 -91 -149 -119
-163 -40 -21 -57 -20 -97 4 -52 32 -76 96 -82 209 -4 84 0 116 32 257 56 252
85 319 145 344 39 16 104 -3 97 -28 -2 -10 -8 -37 -11 -62 -4 -25 -22 -117
-41 -204 -37 -170 -39 -203 -12 -220 24 -15 58 19 102 103 36 70 60 153 97
339 25 126 45 167 101 196 31 18 41 18 76 8 36 -11 42 -17 48 -48 10 -56 -3
-144 -57 -366 -28 -114 -49 -215 -47 -225 4 -23 28 -27 53 -7 17 12 21 32 27
117 14 205 110 482 205 587 23 26 49 47 55 47 7 -1 32 5 55 12 144 47 225 -95
159 -281 -46 -130 -130 -217 -216 -226 l-50 -5 0 -39 c0 -69 42 -118 101 -118
33 0 93 36 132 79 31 34 37 48 37 85 0 61 51 257 88 339 35 77 70 129 81 123
4 -3 23 11 42 30 71 75 175 97 245 53 46 -28 43 -44 -3 -19 -21 11 -52 20 -69
20 -48 0 -112 -40 -152 -95 -20 -27 -27 -43 -17 -33 12 9 43 18 76 20 l57 3
-14 -27 c-19 -37 -18 -41 11 -22 34 22 71 12 83 -23 l9 -28 24 48 c14 28 30
47 40 47 12 0 16 6 13 23 -4 20 -3 19 7 -3 31 -70 -14 -222 -86 -295 -43 -42
-126 -85 -167 -85 -32 0 -34 -7 -14 -55 20 -48 56 -68 120 -67 98 1 187 67
236 176 37 81 79 207 95 281 11 49 14 53 14 25 0 -19 -6 -64 -14 -99 -9 -35
-14 -66 -12 -68 2 -2 19 35 38 82 l34 86 205 2 205 2 -30 -26 c-17 -15 -41
-46 -54 -70 l-24 -44 24 22 c13 12 36 25 52 28 23 6 33 1 66 -32 28 -27 44
-37 54 -31 35 19 27 90 -13 133 -19 20 -19 20 93 17 71 -2 115 -8 120 -15 13
-18 -4 75 -18 103 -27 53 -87 90 -144 90 -41 0 -127 -32 -198 -74 -34 -20 -64
-36 -68 -36 -19 0 61 80 110 109 106 64 204 74 272 28z m-3364 -164 c-18 -2
-48 -2 -65 0 -18 2 -4 4 32 4 36 0 50 -2 33 -4z m-106 -9 c-3 -3 -12 -4 -19
-1 -8 3 -5 6 6 6 11 1 17 -2 13 -5z m180 0 c-3 -3 -12 -4 -19 -1 -8 3 -5 6 6
6 11 1 17 -2 13 -5z m482 -1403 c134 -68 378 -220 451 -281 23 -19 23 -20 3
-10 -13 6 -109 63 -215 126 -181 109 -305 178 -319 179 -4 0 -27 -27 -51 -60
-62 -84 -128 -154 -201 -216 -71 -61 -57 -41 60 83 45 49 103 117 128 153 26
36 51 65 56 65 5 0 45 -18 88 -39z"/>
<path d="M4385 5034 c-31 -16 -95 -73 -95 -85 0 -36 133 14 153 58 9 19 8 26
-4 34 -18 12 -19 11 -54 -7z"/>
<path d="M2200 3471 c60 -35 301 -47 389 -20 40 13 28 14 -150 14 -107 0 -207
3 -224 8 -19 4 -24 4 -15 -2z"/>
<path d="M3055 3471 c-3 -6 -10 -9 -14 -7 -7 4 -101 -216 -101 -235 0 -4 11
-9 25 -11 22 -5 27 1 46 51 25 66 61 203 55 208 -2 3 -7 -1 -11 -6z"/>
<path d="M2345 3233 c-59 -15 -97 -69 -97 -140 0 -45 11 -69 19 -45 3 7 22 21
44 32 30 16 58 20 134 20 l95 0 35 55 c19 30 35 58 35 63 0 5 -17 12 -37 16
-44 7 -198 6 -228 -1z"/>
<path d="M4256 3200 c-16 -5 -33 -7 -37 -5 -17 11 -26 -73 -13 -123 5 -16 11
-21 23 -16 38 15 99 16 128 0 28 -14 32 -14 46 2 43 48 25 111 -38 138 -38 16
-66 17 -109 4z"/>
<path d="M2026 3035 c-11 -57 3 -104 44 -145 44 -44 98 -65 143 -56 53 10 60
18 42 52 -8 16 -15 44 -15 62 0 29 -3 32 -20 27 -35 -11 -103 15 -143 56 -22
21 -41 39 -42 39 -2 0 -6 -16 -9 -35z"/>
<path d="M1531 3484 c0 -11 3 -14 6 -6 3 7 2 16 -1 19 -3 4 -6 -2 -5 -13z"/>
<path d="M4094 4328 l-29 -33 33 29 c17 17 32 31 32 33 0 8 -8 1 -36 -29z"/>
<path d="M4185 4342 c-16 -11 -39 -30 -50 -43 l-20 -24 21 18 c16 13 40 17
115 17 l93 0 -21 21 c-30 30 -99 36 -138 11z"/>
<path d="M4481 4269 c-28 -59 -51 -131 -39 -119 11 10 78 174 73 178 -2 3 -18
-24 -34 -59z"/>
<path d="M4245 4273 c-15 -15 -33 -40 -41 -54 l-14 -27 31 11 c27 11 33 10 49
-10 23 -29 26 -29 45 7 21 40 19 77 -4 90 -28 15 -35 13 -66 -17z"/>
<path d="M4029 4224 c-17 -36 -28 -68 -26 -70 2 -2 18 27 35 66 17 38 29 70
26 70 -3 0 -19 -30 -35 -66z"/>
<path d="M4684 4235 c-37 -39 -80 -143 -66 -157 17 -17 70 21 107 75 37 55 45
101 19 111 -23 9 -24 9 -60 -29z"/>
<path d="M3732 4200 c-14 -23 -17 -59 -3 -44 8 9 24 64 19 64 -2 0 -9 -9 -16
-20z"/>
<path d="M4194 4158 c-34 -40 -78 -134 -69 -148 10 -16 22 -12 59 20 39 35 88
124 79 146 -9 24 -40 16 -69 -18z"/>
<path d="M3340 3468 c0 -6 -11 -8 -25 -6 -31 6 -32 -10 -6 -68 21 -46 54 -74
87 -74 28 0 73 37 98 81 l19 32 -24 -16 c-38 -27 -68 -21 -110 22 -22 21 -39
34 -39 29z"/>
<path d="M3610 3459 c0 -4 12 -18 26 -33 37 -37 104 -36 162 1 23 15 42 30 42
33 0 3 -52 6 -115 5 -63 0 -115 -3 -115 -6z"/>
<path d="M5403 3390 c8 -115 47 -179 132 -216 87 -38 317 -9 423 52 40 24 102
95 102 117 0 6 -10 1 -22 -10 -56 -51 -205 -93 -329 -93 -150 0 -218 49 -259
185 -9 30 -17 41 -32 41 -19 0 -20 -5 -15 -76z"/>
<path d="M2560 5412 c0 -66 -20 -94 -85 -117 -17 -7 -16 -9 12 -15 48 -11 61
-25 74 -88 l13 -56 11 45 c18 69 32 87 77 101 l41 12 -34 9 c-48 12 -78 44
-86 89 -7 47 -23 60 -23 20z"/>
<path d="M5770 5230 c0 -57 -21 -128 -45 -150 -13 -13 -48 -28 -77 -35 l-53
-12 44 -7 c92 -14 125 -53 137 -159 7 -55 24 -70 24 -21 0 90 51 168 118 180
62 11 68 21 17 26 -81 10 -127 61 -141 161 -7 52 -24 64 -24 17z"/>
<path d="M6457 3152 c-9 -101 -40 -139 -132 -157 l-40 -8 48 -8 c87 -14 122
-55 134 -160 3 -27 9 -49 13 -49 4 0 10 22 13 49 12 102 45 143 134 166 l45
11 -55 13 c-34 7 -65 22 -81 38 -25 24 -56 106 -56 145 0 10 -4 18 -9 18 -4 0
-11 -26 -14 -58z"/>
<path d="M5639 2849 c-60 -14 -148 -56 -213 -103 -74 -53 -133 -126 -178 -221
-28 -59 -33 -81 -33 -142 0 -88 17 -116 96 -156 50 -27 61 -28 149 -25 85 3
101 7 159 38 107 57 159 149 130 227 -23 59 -58 78 -147 78 -64 0 -82 -4 -109
-23 -35 -25 -49 -58 -39 -95 10 -41 86 -59 86 -20 0 23 44 12 48 -12 3 -25
-33 -81 -71 -109 -42 -31 -112 -29 -139 4 -68 84 102 359 275 445 82 40 159
53 197 33 57 -30 22 -98 -50 -98 -43 0 -66 24 -39 40 19 12 7 21 -39 27 -33 4
-44 1 -72 -24 -57 -51 -36 -115 46 -133 111 -26 244 63 244 163 0 53 -15 76
-63 98 -45 20 -169 25 -238 8z"/>
<path d="M6015 2679 c-16 -5 -40 -17 -52 -27 -35 -27 -203 -312 -203 -344 0
-72 118 -96 218 -44 22 12 29 11 61 -11 42 -29 88 -27 150 5 l38 20 22 -21
c19 -20 33 -22 138 -24 86 -1 125 3 145 13 25 13 31 13 50 -1 32 -21 133 -19
183 4 158 74 198 285 54 286 -24 0 -55 -4 -67 -8 -21 -8 -23 -7 -13 11 6 11
27 41 47 67 39 52 37 59 -23 71 -24 4 -46 0 -80 -17 -42 -22 -55 -38 -129
-159 -75 -123 -129 -190 -154 -190 -18 0 -11 16 54 114 61 92 63 97 43 107
-11 6 -43 9 -70 6 -53 -5 -68 -16 -153 -123 -36 -45 -76 -69 -99 -60 -15 5
-14 10 6 43 12 21 38 57 56 81 l35 42 -37 15 c-27 12 -44 13 -73 6 -56 -16
-78 -35 -123 -112 -42 -70 -80 -109 -105 -109 -8 0 -14 3 -14 6 0 11 151 256
181 295 24 30 26 39 15 48 -19 16 -67 21 -101 10z m735 -270 c0 -35 -88 -105
-107 -85 -3 3 1 6 10 6 19 0 23 15 7 25 -17 11 -11 22 23 44 35 23 67 27 67
10z"/>
<path d="M2937 2389 c-4 -33 -13 -73 -19 -87 -17 -35 -74 -72 -110 -72 -17 0
-27 -4 -23 -10 3 -5 18 -10 33 -10 33 0 87 -32 102 -60 6 -12 17 -52 24 -88
14 -70 20 -68 31 8 11 85 56 134 136 149 l44 8 -57 12 c-74 16 -111 56 -129
138 -17 81 -25 84 -32 12z"/>
</g>
</svg>
